G04 #@! TF.GenerationSoftware,KiCad,Pcbnew,7.0.1*
G04 #@! TF.CreationDate,2023-11-08T22:06:18+01:00*
G04 #@! TF.ProjectId,sd_ide_connector,73645f69-6465-45f6-936f-6e6e6563746f,rev?*
G04 #@! TF.SameCoordinates,Original*
G04 #@! TF.FileFunction,Copper,L2,Bot*
G04 #@! TF.FilePolarity,Positive*
%FSLAX46Y46*%
G04 Gerber Fmt 4.6, Leading zero omitted, Abs format (unit mm)*
G04 Created by KiCad (PCBNEW 7.0.1) date 2023-11-08 22:06:18*
%MOMM*%
%LPD*%
G01*
G04 APERTURE LIST*
G04 Aperture macros list*
%AMRoundRect*
0 Rectangle with rounded corners*
0 $1 Rounding radius*
0 $2 $3 $4 $5 $6 $7 $8 $9 X,Y pos of 4 corners*
0 Add a 4 corners polygon primitive as box body*
4,1,4,$2,$3,$4,$5,$6,$7,$8,$9,$2,$3,0*
0 Add four circle primitives for the rounded corners*
1,1,$1+$1,$2,$3*
1,1,$1+$1,$4,$5*
1,1,$1+$1,$6,$7*
1,1,$1+$1,$8,$9*
0 Add four rect primitives between the rounded corners*
20,1,$1+$1,$2,$3,$4,$5,0*
20,1,$1+$1,$4,$5,$6,$7,0*
20,1,$1+$1,$6,$7,$8,$9,0*
20,1,$1+$1,$8,$9,$2,$3,0*%
G04 Aperture macros list end*
G04 #@! TA.AperFunction,SMDPad,CuDef*
%ADD10RoundRect,0.150000X1.050000X0.150000X-1.050000X0.150000X-1.050000X-0.150000X1.050000X-0.150000X0*%
G04 #@! TD*
G04 #@! TA.AperFunction,SMDPad,CuDef*
%ADD11RoundRect,0.150000X-1.050000X-0.150000X1.050000X-0.150000X1.050000X0.150000X-1.050000X0.150000X0*%
G04 #@! TD*
G04 #@! TA.AperFunction,SMDPad,CuDef*
%ADD12RoundRect,0.250000X1.250000X0.250000X-1.250000X0.250000X-1.250000X-0.250000X1.250000X-0.250000X0*%
G04 #@! TD*
G04 #@! TA.AperFunction,SMDPad,CuDef*
%ADD13RoundRect,0.250000X-1.250000X-0.250000X1.250000X-0.250000X1.250000X0.250000X-1.250000X0.250000X0*%
G04 #@! TD*
G04 #@! TA.AperFunction,Conductor*
%ADD14C,0.200000*%
G04 #@! TD*
G04 APERTURE END LIST*
D10*
X33524000Y-54954000D03*
X33524000Y-53684000D03*
X33524000Y-52414000D03*
X33524000Y-51144000D03*
X33524000Y-49874000D03*
X33524000Y-48604000D03*
X33524000Y-47334000D03*
X33524000Y-46064000D03*
X33524000Y-44794000D03*
X33524000Y-43524000D03*
X33524000Y-42254000D03*
X33524000Y-40984000D03*
X33524000Y-39714000D03*
X33524000Y-38444000D03*
X33524000Y-37174000D03*
X33524000Y-35904000D03*
X33524000Y-34634000D03*
X33524000Y-33364000D03*
X33524000Y-32094000D03*
X33524000Y-30824000D03*
X33524000Y-29554000D03*
D11*
X33524000Y-28284000D03*
D12*
X21971000Y-63495000D03*
X21971000Y-61495000D03*
X21971000Y-59495000D03*
X21971000Y-57495000D03*
X21971000Y-55495000D03*
X21971000Y-53495000D03*
X21971000Y-51495000D03*
X21971000Y-49495000D03*
X21971000Y-47495000D03*
X21971000Y-45495000D03*
X21971000Y-43495000D03*
X21971000Y-41495000D03*
X21971000Y-39495000D03*
X21971000Y-37495000D03*
X21971000Y-35495000D03*
X21971000Y-33495000D03*
X21971000Y-31495000D03*
X21971000Y-29495000D03*
X21971000Y-27495000D03*
X21971000Y-25495000D03*
X21971000Y-23495000D03*
D13*
X21971000Y-21495000D03*
D14*
X33434000Y-39624000D02*
X33524000Y-39714000D01*
X31750000Y-39624000D02*
X33434000Y-39624000D01*
X31621000Y-39495000D02*
X31750000Y-39624000D01*
X21971000Y-39495000D02*
X31621000Y-39495000D01*
X33487000Y-30861000D02*
X33524000Y-30824000D01*
X26384000Y-25495000D02*
X31750000Y-30861000D01*
X31750000Y-30861000D02*
X33487000Y-30861000D01*
X21971000Y-25495000D02*
X26384000Y-25495000D01*
X33487000Y-54991000D02*
X33524000Y-54954000D01*
X31750000Y-54991000D02*
X33487000Y-54991000D01*
X23246000Y-63495000D02*
X31750000Y-54991000D01*
X21971000Y-63495000D02*
X23246000Y-63495000D01*
X33487000Y-53721000D02*
X33524000Y-53684000D01*
X31750000Y-53721000D02*
X33487000Y-53721000D01*
X23976000Y-61495000D02*
X31750000Y-53721000D01*
X21971000Y-61495000D02*
X23976000Y-61495000D01*
X31787000Y-52414000D02*
X33524000Y-52414000D01*
X21971000Y-59495000D02*
X24706000Y-59495000D01*
X24706000Y-59495000D02*
X31787000Y-52414000D01*
X33487000Y-51181000D02*
X33524000Y-51144000D01*
X31750000Y-51181000D02*
X33487000Y-51181000D01*
X25436000Y-57495000D02*
X31750000Y-51181000D01*
X21971000Y-57495000D02*
X25436000Y-57495000D01*
X26166000Y-55495000D02*
X31750000Y-49911000D01*
X33487000Y-49911000D02*
X33524000Y-49874000D01*
X21971000Y-55495000D02*
X26166000Y-55495000D01*
X31750000Y-49911000D02*
X33487000Y-49911000D01*
X33487000Y-48641000D02*
X33524000Y-48604000D01*
X31750000Y-48641000D02*
X33487000Y-48641000D01*
X26896000Y-53495000D02*
X31750000Y-48641000D01*
X21971000Y-53495000D02*
X26896000Y-53495000D01*
X33487000Y-47371000D02*
X33524000Y-47334000D01*
X31750000Y-47371000D02*
X33487000Y-47371000D01*
X27626000Y-51495000D02*
X31750000Y-47371000D01*
X21971000Y-51495000D02*
X27626000Y-51495000D01*
X33487000Y-46101000D02*
X33524000Y-46064000D01*
X31750000Y-46101000D02*
X33487000Y-46101000D01*
X28356000Y-49495000D02*
X31750000Y-46101000D01*
X21971000Y-49495000D02*
X28356000Y-49495000D01*
X31750000Y-44831000D02*
X33487000Y-44831000D01*
X29086000Y-47495000D02*
X31750000Y-44831000D01*
X33487000Y-44831000D02*
X33524000Y-44794000D01*
X21971000Y-47495000D02*
X29086000Y-47495000D01*
X33487000Y-43561000D02*
X33524000Y-43524000D01*
X31750000Y-43561000D02*
X33487000Y-43561000D01*
X29816000Y-45495000D02*
X31750000Y-43561000D01*
X21971000Y-45495000D02*
X29816000Y-45495000D01*
X31750000Y-42291000D02*
X33487000Y-42291000D01*
X30546000Y-43495000D02*
X31750000Y-42291000D01*
X21971000Y-43495000D02*
X30546000Y-43495000D01*
X33487000Y-42291000D02*
X33524000Y-42254000D01*
X31750000Y-41021000D02*
X33487000Y-41021000D01*
X31276000Y-41495000D02*
X31750000Y-41021000D01*
X33487000Y-41021000D02*
X33524000Y-40984000D01*
X21971000Y-41495000D02*
X31276000Y-41495000D01*
X33487000Y-38481000D02*
X33524000Y-38444000D01*
X31750000Y-38481000D02*
X33487000Y-38481000D01*
X30764000Y-37495000D02*
X31750000Y-38481000D01*
X21971000Y-37495000D02*
X30764000Y-37495000D01*
X33487000Y-37211000D02*
X33524000Y-37174000D01*
X31750000Y-37211000D02*
X33487000Y-37211000D01*
X30034000Y-35495000D02*
X31750000Y-37211000D01*
X21971000Y-35495000D02*
X30034000Y-35495000D01*
X31750000Y-35941000D02*
X33487000Y-35941000D01*
X29304000Y-33495000D02*
X31750000Y-35941000D01*
X33487000Y-35941000D02*
X33524000Y-35904000D01*
X21971000Y-33495000D02*
X29304000Y-33495000D01*
X31750000Y-34671000D02*
X33487000Y-34671000D01*
X28574000Y-31495000D02*
X31750000Y-34671000D01*
X21971000Y-31495000D02*
X28574000Y-31495000D01*
X33487000Y-34671000D02*
X33524000Y-34634000D01*
X33487000Y-33401000D02*
X33524000Y-33364000D01*
X31750000Y-33401000D02*
X33487000Y-33401000D01*
X27844000Y-29495000D02*
X31750000Y-33401000D01*
X21971000Y-29495000D02*
X27844000Y-29495000D01*
X33487000Y-32131000D02*
X33524000Y-32094000D01*
X31750000Y-32131000D02*
X33487000Y-32131000D01*
X27114000Y-27495000D02*
X31750000Y-32131000D01*
X21971000Y-27495000D02*
X27114000Y-27495000D01*
X33487000Y-29591000D02*
X33524000Y-29554000D01*
X31750000Y-29591000D02*
X33487000Y-29591000D01*
X25654000Y-23495000D02*
X31750000Y-29591000D01*
X21971000Y-23495000D02*
X25654000Y-23495000D01*
X31623000Y-28321000D02*
X33487000Y-28321000D01*
X33487000Y-28321000D02*
X33524000Y-28284000D01*
X24797000Y-21495000D02*
X31623000Y-28321000D01*
X21971000Y-21495000D02*
X24797000Y-21495000D01*
M02*
