G04 #@! TF.GenerationSoftware,KiCad,Pcbnew,7.0.1*
G04 #@! TF.CreationDate,2023-11-08T22:06:18+01:00*
G04 #@! TF.ProjectId,sd_ide_connector,73645f69-6465-45f6-936f-6e6e6563746f,rev?*
G04 #@! TF.SameCoordinates,Original*
G04 #@! TF.FileFunction,Legend,Top*
G04 #@! TF.FilePolarity,Positive*
%FSLAX46Y46*%
G04 Gerber Fmt 4.6, Leading zero omitted, Abs format (unit mm)*
G04 Created by KiCad (PCBNEW 7.0.1) date 2023-11-08 22:06:18*
%MOMM*%
%LPD*%
G01*
G04 APERTURE LIST*
G04 Aperture macros list*
%AMRoundRect*
0 Rectangle with rounded corners*
0 $1 Rounding radius*
0 $2 $3 $4 $5 $6 $7 $8 $9 X,Y pos of 4 corners*
0 Add a 4 corners polygon primitive as box body*
4,1,4,$2,$3,$4,$5,$6,$7,$8,$9,$2,$3,0*
0 Add four circle primitives for the rounded corners*
1,1,$1+$1,$2,$3*
1,1,$1+$1,$4,$5*
1,1,$1+$1,$6,$7*
1,1,$1+$1,$8,$9*
0 Add four rect primitives between the rounded corners*
20,1,$1+$1,$2,$3,$4,$5,0*
20,1,$1+$1,$4,$5,$6,$7,0*
20,1,$1+$1,$6,$7,$8,$9,0*
20,1,$1+$1,$8,$9,$2,$3,0*%
G04 Aperture macros list end*
%ADD10C,0.100000*%
%ADD11C,0.150000*%
%ADD12RoundRect,0.150000X1.050000X0.150000X-1.050000X0.150000X-1.050000X-0.150000X1.050000X-0.150000X0*%
%ADD13RoundRect,0.250000X1.250000X0.250000X-1.250000X0.250000X-1.250000X-0.250000X1.250000X-0.250000X0*%
G04 APERTURE END LIST*
D10*
X31913047Y-27935666D02*
X31246380Y-27935666D01*
X32294000Y-27697571D02*
X31579714Y-27459476D01*
X31579714Y-27459476D02*
X31579714Y-28078523D01*
X31913047Y-28888047D02*
X31246380Y-28888047D01*
X32294000Y-28649952D02*
X31579714Y-28411857D01*
X31579714Y-28411857D02*
X31579714Y-29030904D01*
X32151142Y-54659476D02*
X32198761Y-54707095D01*
X32198761Y-54707095D02*
X32246380Y-54802333D01*
X32246380Y-54802333D02*
X32246380Y-55040428D01*
X32246380Y-55040428D02*
X32198761Y-55135666D01*
X32198761Y-55135666D02*
X32151142Y-55183285D01*
X32151142Y-55183285D02*
X32055904Y-55230904D01*
X32055904Y-55230904D02*
X31960666Y-55230904D01*
X31960666Y-55230904D02*
X31817809Y-55183285D01*
X31817809Y-55183285D02*
X31246380Y-54611857D01*
X31246380Y-54611857D02*
X31246380Y-55230904D01*
D11*
X32844095Y-64020286D02*
X33644095Y-63753619D01*
X33644095Y-63753619D02*
X32844095Y-63486953D01*
X32920285Y-63258382D02*
X32882190Y-63220286D01*
X32882190Y-63220286D02*
X32844095Y-63144096D01*
X32844095Y-63144096D02*
X32844095Y-62953620D01*
X32844095Y-62953620D02*
X32882190Y-62877429D01*
X32882190Y-62877429D02*
X32920285Y-62839334D01*
X32920285Y-62839334D02*
X32996476Y-62801239D01*
X32996476Y-62801239D02*
X33072666Y-62801239D01*
X33072666Y-62801239D02*
X33186952Y-62839334D01*
X33186952Y-62839334D02*
X33644095Y-63296477D01*
X33644095Y-63296477D02*
X33644095Y-62801239D01*
X32844095Y-62306000D02*
X32844095Y-62229810D01*
X32844095Y-62229810D02*
X32882190Y-62153619D01*
X32882190Y-62153619D02*
X32920285Y-62115524D01*
X32920285Y-62115524D02*
X32996476Y-62077429D01*
X32996476Y-62077429D02*
X33148857Y-62039334D01*
X33148857Y-62039334D02*
X33339333Y-62039334D01*
X33339333Y-62039334D02*
X33491714Y-62077429D01*
X33491714Y-62077429D02*
X33567904Y-62115524D01*
X33567904Y-62115524D02*
X33606000Y-62153619D01*
X33606000Y-62153619D02*
X33644095Y-62229810D01*
X33644095Y-62229810D02*
X33644095Y-62306000D01*
X33644095Y-62306000D02*
X33606000Y-62382191D01*
X33606000Y-62382191D02*
X33567904Y-62420286D01*
X33567904Y-62420286D02*
X33491714Y-62458381D01*
X33491714Y-62458381D02*
X33339333Y-62496477D01*
X33339333Y-62496477D02*
X33148857Y-62496477D01*
X33148857Y-62496477D02*
X32996476Y-62458381D01*
X32996476Y-62458381D02*
X32920285Y-62420286D01*
X32920285Y-62420286D02*
X32882190Y-62382191D01*
X32882190Y-62382191D02*
X32844095Y-62306000D01*
X32920285Y-61734572D02*
X32882190Y-61696476D01*
X32882190Y-61696476D02*
X32844095Y-61620286D01*
X32844095Y-61620286D02*
X32844095Y-61429810D01*
X32844095Y-61429810D02*
X32882190Y-61353619D01*
X32882190Y-61353619D02*
X32920285Y-61315524D01*
X32920285Y-61315524D02*
X32996476Y-61277429D01*
X32996476Y-61277429D02*
X33072666Y-61277429D01*
X33072666Y-61277429D02*
X33186952Y-61315524D01*
X33186952Y-61315524D02*
X33644095Y-61772667D01*
X33644095Y-61772667D02*
X33644095Y-61277429D01*
X32844095Y-61010762D02*
X32844095Y-60515524D01*
X32844095Y-60515524D02*
X33148857Y-60782190D01*
X33148857Y-60782190D02*
X33148857Y-60667905D01*
X33148857Y-60667905D02*
X33186952Y-60591714D01*
X33186952Y-60591714D02*
X33225047Y-60553619D01*
X33225047Y-60553619D02*
X33301238Y-60515524D01*
X33301238Y-60515524D02*
X33491714Y-60515524D01*
X33491714Y-60515524D02*
X33567904Y-60553619D01*
X33567904Y-60553619D02*
X33606000Y-60591714D01*
X33606000Y-60591714D02*
X33644095Y-60667905D01*
X33644095Y-60667905D02*
X33644095Y-60896476D01*
X33644095Y-60896476D02*
X33606000Y-60972667D01*
X33606000Y-60972667D02*
X33567904Y-61010762D01*
X33644095Y-59753619D02*
X33644095Y-60210762D01*
X33644095Y-59982190D02*
X32844095Y-59982190D01*
X32844095Y-59982190D02*
X32958380Y-60058381D01*
X32958380Y-60058381D02*
X33034571Y-60134571D01*
X33034571Y-60134571D02*
X33072666Y-60210762D01*
X33644095Y-58991714D02*
X33644095Y-59448857D01*
X33644095Y-59220285D02*
X32844095Y-59220285D01*
X32844095Y-59220285D02*
X32958380Y-59296476D01*
X32958380Y-59296476D02*
X33034571Y-59372666D01*
X33034571Y-59372666D02*
X33072666Y-59448857D01*
X32844095Y-58496475D02*
X32844095Y-58420285D01*
X32844095Y-58420285D02*
X32882190Y-58344094D01*
X32882190Y-58344094D02*
X32920285Y-58305999D01*
X32920285Y-58305999D02*
X32996476Y-58267904D01*
X32996476Y-58267904D02*
X33148857Y-58229809D01*
X33148857Y-58229809D02*
X33339333Y-58229809D01*
X33339333Y-58229809D02*
X33491714Y-58267904D01*
X33491714Y-58267904D02*
X33567904Y-58305999D01*
X33567904Y-58305999D02*
X33606000Y-58344094D01*
X33606000Y-58344094D02*
X33644095Y-58420285D01*
X33644095Y-58420285D02*
X33644095Y-58496475D01*
X33644095Y-58496475D02*
X33606000Y-58572666D01*
X33606000Y-58572666D02*
X33567904Y-58610761D01*
X33567904Y-58610761D02*
X33491714Y-58648856D01*
X33491714Y-58648856D02*
X33339333Y-58686952D01*
X33339333Y-58686952D02*
X33148857Y-58686952D01*
X33148857Y-58686952D02*
X32996476Y-58648856D01*
X32996476Y-58648856D02*
X32920285Y-58610761D01*
X32920285Y-58610761D02*
X32882190Y-58572666D01*
X32882190Y-58572666D02*
X32844095Y-58496475D01*
X32844095Y-57963142D02*
X32844095Y-57467904D01*
X32844095Y-57467904D02*
X33148857Y-57734570D01*
X33148857Y-57734570D02*
X33148857Y-57620285D01*
X33148857Y-57620285D02*
X33186952Y-57544094D01*
X33186952Y-57544094D02*
X33225047Y-57505999D01*
X33225047Y-57505999D02*
X33301238Y-57467904D01*
X33301238Y-57467904D02*
X33491714Y-57467904D01*
X33491714Y-57467904D02*
X33567904Y-57505999D01*
X33567904Y-57505999D02*
X33606000Y-57544094D01*
X33606000Y-57544094D02*
X33644095Y-57620285D01*
X33644095Y-57620285D02*
X33644095Y-57848856D01*
X33644095Y-57848856D02*
X33606000Y-57925047D01*
X33606000Y-57925047D02*
X33567904Y-57963142D01*
D10*
X25788142Y-63272476D02*
X25835761Y-63320095D01*
X25835761Y-63320095D02*
X25883380Y-63415333D01*
X25883380Y-63415333D02*
X25883380Y-63653428D01*
X25883380Y-63653428D02*
X25835761Y-63748666D01*
X25835761Y-63748666D02*
X25788142Y-63796285D01*
X25788142Y-63796285D02*
X25692904Y-63843904D01*
X25692904Y-63843904D02*
X25597666Y-63843904D01*
X25597666Y-63843904D02*
X25454809Y-63796285D01*
X25454809Y-63796285D02*
X24883380Y-63224857D01*
X24883380Y-63224857D02*
X24883380Y-63843904D01*
X25042047Y-21681666D02*
X24375380Y-21681666D01*
X25423000Y-21443571D02*
X24708714Y-21205476D01*
X24708714Y-21205476D02*
X24708714Y-21824523D01*
X25042047Y-22634047D02*
X24375380Y-22634047D01*
X25423000Y-22395952D02*
X24708714Y-22157857D01*
X24708714Y-22157857D02*
X24708714Y-22776904D01*
D11*
X25492000Y-26574500D02*
X25492000Y-25574500D01*
%LPC*%
D12*
X33524000Y-54954000D03*
X33524000Y-53684000D03*
X33524000Y-52414000D03*
X33524000Y-51144000D03*
X33524000Y-49874000D03*
X33524000Y-48604000D03*
X33524000Y-47334000D03*
X33524000Y-46064000D03*
X33524000Y-44794000D03*
X33524000Y-43524000D03*
X33524000Y-42254000D03*
X33524000Y-40984000D03*
X33524000Y-39714000D03*
X33524000Y-38444000D03*
X33524000Y-37174000D03*
X33524000Y-35904000D03*
X33524000Y-34634000D03*
X33524000Y-33364000D03*
X33524000Y-32094000D03*
X33524000Y-30824000D03*
X33524000Y-29554000D03*
X33524000Y-28284000D03*
D13*
X21971000Y-63495000D03*
X21971000Y-61495000D03*
X21971000Y-59495000D03*
X21971000Y-57495000D03*
X21971000Y-55495000D03*
X21971000Y-53495000D03*
X21971000Y-51495000D03*
X21971000Y-49495000D03*
X21971000Y-47495000D03*
X21971000Y-45495000D03*
X21971000Y-43495000D03*
X21971000Y-41495000D03*
X21971000Y-39495000D03*
X21971000Y-37495000D03*
X21971000Y-35495000D03*
X21971000Y-33495000D03*
X21971000Y-31495000D03*
X21971000Y-29495000D03*
X21971000Y-27495000D03*
X21971000Y-25495000D03*
X21971000Y-23495000D03*
X21971000Y-21495000D03*
M02*
