%TF.GenerationSoftware,KiCad,Pcbnew,7.0.1*%
%TF.CreationDate,2023-11-08T22:07:33+01:00*%
%TF.ProjectId,sd_ide_connector,73645f69-6465-45f6-936f-6e6e6563746f,rev?*%
%TF.SameCoordinates,Original*%
%TF.FileFunction,Drillmap*%
%TF.FilePolarity,Positive*%
%FSLAX45Y45*%
G04 Gerber Fmt 4.5, Leading zero omitted, Abs format (unit mm)*
G04 Created by KiCad (PCBNEW 7.0.1) date 2023-11-08 22:07:33*
%MOMM*%
%LPD*%
G01*
G04 APERTURE LIST*
%ADD10C,0.020000*%
%ADD11C,0.200000*%
G04 APERTURE END LIST*
D10*
X3500000Y-2000000D02*
X3500000Y-6500000D01*
X2000000Y-2000000D02*
X3500000Y-2000000D01*
X3500000Y-6500000D02*
X2000000Y-6500000D01*
X2000000Y-2000000D02*
X2000000Y-6500000D01*
D11*
X2246619Y-6813524D02*
X2246619Y-6613524D01*
X2246619Y-6613524D02*
X2294238Y-6613524D01*
X2294238Y-6613524D02*
X2322810Y-6623048D01*
X2322810Y-6623048D02*
X2341857Y-6642095D01*
X2341857Y-6642095D02*
X2351381Y-6661143D01*
X2351381Y-6661143D02*
X2360905Y-6699238D01*
X2360905Y-6699238D02*
X2360905Y-6727809D01*
X2360905Y-6727809D02*
X2351381Y-6765905D01*
X2351381Y-6765905D02*
X2341857Y-6784952D01*
X2341857Y-6784952D02*
X2322810Y-6804000D01*
X2322810Y-6804000D02*
X2294238Y-6813524D01*
X2294238Y-6813524D02*
X2246619Y-6813524D01*
X2446619Y-6813524D02*
X2446619Y-6680190D01*
X2446619Y-6718286D02*
X2456143Y-6699238D01*
X2456143Y-6699238D02*
X2465667Y-6689714D01*
X2465667Y-6689714D02*
X2484714Y-6680190D01*
X2484714Y-6680190D02*
X2503762Y-6680190D01*
X2570429Y-6813524D02*
X2570429Y-6680190D01*
X2570429Y-6613524D02*
X2560905Y-6623048D01*
X2560905Y-6623048D02*
X2570429Y-6632571D01*
X2570429Y-6632571D02*
X2579952Y-6623048D01*
X2579952Y-6623048D02*
X2570429Y-6613524D01*
X2570429Y-6613524D02*
X2570429Y-6632571D01*
X2694238Y-6813524D02*
X2675190Y-6804000D01*
X2675190Y-6804000D02*
X2665667Y-6784952D01*
X2665667Y-6784952D02*
X2665667Y-6613524D01*
X2799000Y-6813524D02*
X2779952Y-6804000D01*
X2779952Y-6804000D02*
X2770429Y-6784952D01*
X2770429Y-6784952D02*
X2770429Y-6613524D01*
X3027571Y-6813524D02*
X3027571Y-6613524D01*
X3027571Y-6613524D02*
X3094238Y-6756381D01*
X3094238Y-6756381D02*
X3160905Y-6613524D01*
X3160905Y-6613524D02*
X3160905Y-6813524D01*
X3341857Y-6813524D02*
X3341857Y-6708762D01*
X3341857Y-6708762D02*
X3332333Y-6689714D01*
X3332333Y-6689714D02*
X3313286Y-6680190D01*
X3313286Y-6680190D02*
X3275190Y-6680190D01*
X3275190Y-6680190D02*
X3256143Y-6689714D01*
X3341857Y-6804000D02*
X3322809Y-6813524D01*
X3322809Y-6813524D02*
X3275190Y-6813524D01*
X3275190Y-6813524D02*
X3256143Y-6804000D01*
X3256143Y-6804000D02*
X3246619Y-6784952D01*
X3246619Y-6784952D02*
X3246619Y-6765905D01*
X3246619Y-6765905D02*
X3256143Y-6746857D01*
X3256143Y-6746857D02*
X3275190Y-6737333D01*
X3275190Y-6737333D02*
X3322809Y-6737333D01*
X3322809Y-6737333D02*
X3341857Y-6727809D01*
X3437095Y-6680190D02*
X3437095Y-6880190D01*
X3437095Y-6689714D02*
X3456143Y-6680190D01*
X3456143Y-6680190D02*
X3494238Y-6680190D01*
X3494238Y-6680190D02*
X3513286Y-6689714D01*
X3513286Y-6689714D02*
X3522809Y-6699238D01*
X3522809Y-6699238D02*
X3532333Y-6718286D01*
X3532333Y-6718286D02*
X3532333Y-6775428D01*
X3532333Y-6775428D02*
X3522809Y-6794476D01*
X3522809Y-6794476D02*
X3513286Y-6804000D01*
X3513286Y-6804000D02*
X3494238Y-6813524D01*
X3494238Y-6813524D02*
X3456143Y-6813524D01*
X3456143Y-6813524D02*
X3437095Y-6804000D01*
X3618048Y-6794476D02*
X3627571Y-6804000D01*
X3627571Y-6804000D02*
X3618048Y-6813524D01*
X3618048Y-6813524D02*
X3608524Y-6804000D01*
X3608524Y-6804000D02*
X3618048Y-6794476D01*
X3618048Y-6794476D02*
X3618048Y-6813524D01*
X3618048Y-6689714D02*
X3627571Y-6699238D01*
X3627571Y-6699238D02*
X3618048Y-6708762D01*
X3618048Y-6708762D02*
X3608524Y-6699238D01*
X3608524Y-6699238D02*
X3618048Y-6689714D01*
X3618048Y-6689714D02*
X3618048Y-6708762D01*
M02*
